<svg xmlns="http://www.w3.org/2000/svg" width="29.495" height="27.228" viewBox="0 0 29.495 27.228">
  <g id="中マド_6" data-name="中マド 6" transform="translate(-0.467 -0.463)" fill="#72b9ff" stroke-linecap="round" stroke-linejoin="bevel">
    <path d="M 24.71490859985352 27.19130325317383 L 5.714107990264893 27.19130325317383 C 3.623626947402954 27.19130325317383 1.786121010780334 25.72019386291504 1.325333714485168 23.68602752685547 C 0.7726351022720337 22.38876152038574 0.8619714975357056 20.89004325866699 1.566757917404175 19.66887474060059 L 11.06718826293945 3.214093923568726 C 11.868408203125 1.825833916664124 13.36307811737061 0.9633839130401611 14.9678783416748 0.9633839130401611 C 15.04988193511963 0.9633839130401611 15.13279342651367 0.9656643271446228 15.21480178833008 0.9701758623123169 C 15.29315185546875 0.9657901525497437 15.37905120849609 0.9634039402008057 15.46019744873047 0.9634039402008057 C 17.06481742858887 0.9634039402008057 18.5598087310791 1.825783967971802 19.36174774169922 3.213994026184082 L 28.861328125 19.66881370544434 C 29.56576919555664 20.88904571533203 29.65558242797852 22.38740730285645 29.10384559631348 23.68444442749023 C 28.64532470703125 25.7197093963623 26.80824661254883 27.19130325317383 24.71490859985352 27.19130325317383 Z M 2.281846046447754 23.3768253326416 C 2.584790229797363 24.04007530212402 3.079099655151367 24.58320045471191 3.714037895202637 24.94965362548828 C 4.246227741241455 25.25680351257324 4.850127696990967 25.41915321350098 5.460437774658203 25.41915321350098 C 6.708967685699463 25.41915321350098 7.871717929840088 24.74833488464355 8.494948387145996 23.6684741973877 L 11.07996845245361 19.19120407104492 L 5.714107990264893 19.19120407104492 C 3.784417867660522 19.19120407104492 2.214507818222046 20.76152420043945 2.214507818222046 22.69170379638672 C 2.214507818222046 22.92215919494629 2.237155437469482 23.15242767333984 2.281846046447754 23.3768253326416 Z M 19.34840202331543 19.19120407104492 L 21.93312835693359 23.66841316223145 C 22.55689811706543 24.74823379516602 23.7197380065918 25.41910362243652 24.96779823303223 25.41910362243652 C 25.57846832275391 25.41910362243652 26.18265724182129 25.25675392150879 26.71504783630371 24.94961357116699 C 27.3526439666748 24.58141136169434 27.84855270385742 24.03421974182129 28.15131378173828 23.3653564453125 C 28.19326400756836 23.14149284362793 28.21450805664062 22.9151496887207 28.21450805664062 22.69170379638672 C 28.21450805664062 20.76152420043945 26.64459800720215 19.19120407104492 24.71490859985352 19.19120407104492 L 19.34840202331543 19.19120407104492 Z M 12.81204891204834 18.19120407104492 L 17.61640548706055 18.19120407104492 L 15.21432971954346 14.03044891357422 L 12.81204891204834 18.19120407104492 Z M 15.21529483795166 1.972160220146179 C 14.69033336639404 2.009613752365112 14.17222595214844 2.168588638305664 13.7150182723999 2.43273401260376 C 12.90536785125732 2.900123834609985 12.32581806182861 3.655103921890259 12.08295822143555 4.5586838722229 C 11.84141826629639 5.461163997650146 11.96586799621582 6.404193878173828 12.43351745605469 7.213553905487061 L 15.21436595916748 12.03041744232178 L 17.9953784942627 7.213694095611572 C 18.96015739440918 5.542843818664551 18.38532829284668 3.398133993148804 16.71400833129883 2.43277382850647 C 16.24944496154785 2.164633274078369 15.74532985687256 2.009714126586914 15.21529483795166 1.972160220146179 Z" stroke="none"/>
    <path d="M 24.71490859985352 26.69130325317383 C 26.59081840515137 26.69130325317383 28.23660850524902 25.36111450195312 28.62630844116211 23.52780342102051 C 28.28222846984863 24.31231307983398 27.70773696899414 24.95373344421387 26.96490859985352 25.38270378112793 C 26.35663795471191 25.73362350463867 25.66604804992676 25.91910362243652 24.96779823303223 25.91910362243652 C 23.54173851013184 25.91910362243652 22.21298789978027 25.15248489379883 21.50010871887207 23.91840362548828 L 18.48240852355957 18.69120407104492 L 24.71490859985352 18.69120407104492 C 26.9202880859375 18.69120407104492 28.71450805664062 20.48582458496094 28.71450805664062 22.69170379638672 C 28.71450805664062 22.96980476379395 28.68570709228516 23.24787330627441 28.63079833984375 23.5188045501709 C 29.13567733764648 22.35877418518066 29.05997848510742 21.01297378540039 28.42830848693848 19.91880416870117 L 18.92879867553711 3.464103937149048 C 18.21589851379395 2.230023860931396 16.88679885864258 1.463403940200806 15.46019744873047 1.463403940200806 C 15.37594795227051 1.463403940200806 15.28907775878906 1.466263890266418 15.21518802642822 1.471053957939148 C 15.83438777923584 1.509493947029114 16.42279815673828 1.687383890151978 16.96408843994141 1.999803900718689 C 18.87411880493164 3.103044033050537 19.53099822998047 5.554143905639648 18.42838859558105 7.463704109191895 L 15.21434783935547 13.03043365478516 L 18.48240852355957 18.69120407104492 L 11.94600772857666 18.69120407104492 L 15.21434783935547 13.03043365478516 L 12.00058746337891 7.463704109191895 C 11.46610832214355 6.538683891296387 11.32388782501221 5.460904121398926 11.60009765625 4.428904056549072 C 11.87757778167725 3.396483898162842 12.53983783721924 2.533803939819336 13.46488761901855 1.999803900718689 C 13.99899768829346 1.691213965415955 14.604248046875 1.509063959121704 15.21518802642822 1.471053957939148 C 15.13325786590576 1.465963959693909 15.05004787445068 1.463383913040161 14.9678783416748 1.463383913040161 C 13.54117774963379 1.463383913040161 12.21243762969971 2.230013847351074 11.50019836425781 3.464103937149048 L 1.999807953834534 19.91880416870117 C 1.367397904396057 21.01456451416016 1.292447924613953 22.36173439025879 1.799317955970764 23.52248382568359 L 1.801217913627625 23.52187347412109 C 1.743677973747253 23.25041389465332 1.714507937431335 22.97110366821289 1.714507937431335 22.69170379638672 C 1.714507937431335 20.48582458496094 3.508718013763428 18.69120407104492 5.714107990264893 18.69120407104492 L 11.94600772857666 18.69120407104492 L 8.927997589111328 23.91840362548828 C 8.215747833251953 25.15251350402832 6.887057781219482 25.91915321350098 5.460437774658203 25.91915321350098 C 4.762507915496826 25.91915321350098 4.072187900543213 25.7336540222168 3.464107990264893 25.38270378112793 C 2.720547914505005 24.95356369018555 2.146898031234741 24.31321334838867 1.803267955780029 23.53151321411133 C 2.196058034896851 25.36242485046387 3.840817928314209 26.69130325317383 5.714107990264893 26.69130325317383 L 24.71490859985352 26.69130325317383 M 24.71490859985352 27.69130325317383 L 5.714107990264893 27.69130325317383 C 3.406503200531006 27.69130325317383 1.376285195350647 26.07779693603516 0.8478589653968811 23.84042739868164 C 0.2533051371574402 22.40885734558105 0.3581558763980865 20.76270294189453 1.133707880973816 19.4189338684082 L 10.63417816162109 2.964093923568726 C 11.52437782287598 1.421653985977173 13.18498802185059 0.4633839428424835 14.9678783416748 0.4633839428424835 C 15.04974174499512 0.4633839428424835 15.13243198394775 0.4654336869716644 15.21448516845703 0.4694821536540985 C 15.2943811416626 0.4654898941516876 15.37815761566162 0.4634039402008057 15.46019744873047 0.4634039402008057 C 17.24282836914062 0.4634039402008057 18.90371704101562 1.421533942222595 19.79469871520996 2.963893890380859 L 29.29434776306152 19.4188232421875 C 30.06947898864746 20.76149559020996 30.17486572265625 22.40715789794922 29.58148765563965 23.8383903503418 C 29.05546569824219 26.07717895507812 27.02567291259766 27.69130325317383 24.71490859985352 27.69130325317383 Z M 2.761405467987061 23.22193717956543 C 3.022719144821167 23.76611328125 3.436732053756714 24.21231079101562 3.96396803855896 24.51660346984863 C 4.420278072357178 24.77995300292969 4.937747955322266 24.91915321350098 5.460437774658203 24.91915321350098 C 6.530868053436279 24.91915321350098 7.527688026428223 24.34415435791016 8.061887741088867 23.41854476928711 L 10.2139310836792 19.69120407104492 L 5.714107990264893 19.69120407104492 C 4.060117721557617 19.69120407104492 2.714507818222046 21.03722381591797 2.714507818222046 22.69170379638672 C 2.714507818222046 22.8698616027832 2.730263710021973 23.04780006408691 2.761405467987061 23.22193717956543 Z M 20.21439170837402 19.69120407104492 L 22.36614799499512 23.41843414306641 C 22.90080833435059 24.343994140625 23.89775848388672 24.91910362243652 24.96779823303223 24.91910362243652 C 25.49087715148926 24.91910362243652 26.0086669921875 24.77989387512207 26.46518707275391 24.51651382446289 C 26.99395370483398 24.21116256713867 27.40912246704102 23.76197242736816 27.67045783996582 23.21371078491211 C 27.69971084594727 23.03970336914062 27.71450805664062 22.86458206176758 27.71450805664062 22.69170379638672 C 27.71450805664062 21.03722381591797 26.36889839172363 19.69120407104492 24.71490859985352 19.69120407104492 L 20.21439170837402 19.69120407104492 Z M 13.6780834197998 17.69120407104492 L 16.75040435791016 17.69120407104492 L 15.21430969238281 15.03045845031738 L 13.6780834197998 17.69120407104492 Z M 15.21541309356689 2.473634243011475 C 14.77779102325439 2.510191679000854 14.34679222106934 2.645179510116577 13.9651575088501 2.865674018859863 C 13.27088832855225 3.266453981399536 12.7740478515625 3.913723945617676 12.56582832336426 4.688464164733887 C 12.35894775390625 5.461413860321045 12.46561813354492 6.269693851470947 12.86644744873047 6.963413715362549 L 15.21438694000244 11.03040599822998 L 17.56236839294434 6.963694095611572 C 18.38931846618652 5.531543731689453 17.89654731750488 3.69322395324707 16.46392822265625 2.865733861923218 C 16.07611656188965 2.641901969909668 15.65631771087646 2.510079145431519 15.21541309356689 2.473634243011475 Z" stroke="none" fill="#707070"/>
  </g>
</svg>
